<svg width="50" height="50" viewBox="0 0 50 50" fill="none" xmlns="http://www.w3.org/2000/svg">
<path d="M29.5625 29.5625L12.5 37.5L20.4375 20.4375L37.5 12.5M25 4.16669C22.2641 4.16669 19.555 4.70556 17.0274 5.75253C14.4998 6.7995 12.2031 8.33408 10.2686 10.2686C6.36156 14.1756 4.16663 19.4747 4.16663 25C4.16663 30.5254 6.36156 35.8244 10.2686 39.7314C12.2031 41.666 14.4998 43.2005 17.0274 44.2475C19.555 45.2945 22.2641 45.8334 25 45.8334C30.5253 45.8334 35.8243 43.6384 39.7314 39.7314C43.6384 35.8244 45.8333 30.5254 45.8333 25C45.8333 22.2641 45.2944 19.5551 44.2475 17.0274C43.2005 14.4998 41.6659 12.2032 39.7314 10.2686C37.7968 8.33408 35.5002 6.7995 32.9725 5.75253C30.4449 4.70556 27.7358 4.16669 25 4.16669ZM25 22.7084C24.3922 22.7084 23.8093 22.9498 23.3795 23.3796C22.9497 23.8093 22.7083 24.3922 22.7083 25C22.7083 25.6078 22.9497 26.1907 23.3795 26.6205C23.8093 27.0502 24.3922 27.2917 25 27.2917C25.6077 27.2917 26.1906 27.0502 26.6204 26.6205C27.0502 26.1907 27.2916 25.6078 27.2916 25C27.2916 24.3922 27.0502 23.8093 26.6204 23.3796C26.1906 22.9498 25.6077 22.7084 25 22.7084Z" fill="#E0E0E0"/>
</svg>
