<svg width="31" height="31" viewBox="0 0 31 31" fill="none" xmlns="http://www.w3.org/2000/svg">
<path d="M12.2708 20.6667C9.92431 20.6667 7.93858 19.8538 6.31367 18.228C4.68875 16.6022 3.87586 14.6165 3.875 12.2708C3.87414 9.92517 4.68703 7.93944 6.31367 6.31367C7.94031 4.68789 9.92603 3.875 12.2708 3.875C14.6156 3.875 16.6018 4.68789 18.2293 6.31367C19.8568 7.93944 20.6693 9.92517 20.6667 12.2708C20.6667 13.2181 20.516 14.1115 20.2146 14.951C19.9132 15.7906 19.5042 16.5333 18.9875 17.1792L26.2208 24.4125C26.4576 24.6493 26.576 24.9507 26.576 25.3167C26.576 25.6826 26.4576 25.984 26.2208 26.2208C25.984 26.4576 25.6826 26.576 25.3167 26.576C24.9507 26.576 24.6493 26.4576 24.4125 26.2208L17.1792 18.9875C16.5333 19.5042 15.7906 19.9132 14.951 20.2146C14.1115 20.516 13.2181 20.6667 12.2708 20.6667ZM12.2708 18.0833C13.8854 18.0833 15.258 17.5184 16.3887 16.3887C17.5193 15.2589 18.0842 13.8863 18.0833 12.2708C18.0825 10.6554 17.5176 9.28321 16.3887 8.15429C15.2598 7.02538 13.8871 6.46006 12.2708 6.45833C10.6545 6.45661 9.28235 7.02193 8.15429 8.15429C7.02624 9.28665 6.46092 10.6588 6.45833 12.2708C6.45575 13.8828 7.02107 15.2554 8.15429 16.3887C9.28751 17.5219 10.6597 18.0868 12.2708 18.0833Z" fill="white"/>
</svg>
