<svg width="50" height="50" viewBox="0 0 50 50" fill="none" xmlns="http://www.w3.org/2000/svg">
<path d="M22.4125 31.65C23.0403 32.2778 23.8597 32.566 24.8708 32.5146C25.8847 32.4618 26.6333 32.1042 27.1167 31.4417L35.1188 20.2771C35.4035 19.866 35.3792 19.4938 35.0458 19.1604C34.7125 18.8271 34.3396 18.8021 33.9271 19.0854L22.725 27.0521C22.0347 27.516 21.6465 28.2327 21.5604 29.2021C21.4743 30.1715 21.7583 30.9875 22.4125 31.65ZM10.625 39.5834C10.2403 39.5834 9.88611 39.4854 9.5625 39.2896C9.2375 39.0924 8.96389 38.8243 8.74167 38.4854C7.91944 37.0674 7.29861 35.5688 6.87917 33.9896C6.45972 32.4104 6.25 30.8028 6.25 29.1667C6.25 26.5722 6.74236 24.1347 7.72708 21.8542C8.71181 19.5736 10.0479 17.5896 11.7354 15.9021C13.4229 14.2146 15.4069 12.8785 17.6875 11.8938C19.9681 10.909 22.4056 10.4167 25 10.4167C27.5792 10.4167 30.0007 10.9014 32.2646 11.8709C34.5285 12.8389 36.509 14.1584 38.2063 15.8292C39.9049 17.5014 41.2493 19.4584 42.2396 21.7C43.2313 23.9431 43.7313 26.3521 43.7396 28.9271C43.7465 30.6549 43.5424 32.3299 43.1271 33.9521C42.7118 35.5757 42.0847 37.1403 41.2458 38.6459C41.0514 38.9847 40.7875 39.2257 40.4542 39.3688C40.1222 39.5118 39.7583 39.5834 39.3625 39.5834H10.625Z" fill="#E0E0E0"/>
</svg>
