<svg width="50" height="50" viewBox="0 0 50 50" fill="none" xmlns="http://www.w3.org/2000/svg">
<path fill-rule="evenodd" clip-rule="evenodd" d="M18.75 41.6459C18.749 41.6411 18.7464 41.6368 18.7426 41.6338C18.7387 41.6307 18.734 41.6291 18.7291 41.6292C16.2527 41.8156 13.7727 41.3175 11.5604 40.1892C9.34805 39.061 7.48858 37.3461 6.18535 35.2321C4.88211 33.1181 4.1853 30.6864 4.17112 28.203C4.15694 25.7197 4.82595 23.2802 6.10496 21.1515C7.38398 19.0227 9.22375 17.2867 11.4231 16.1333C13.6224 14.9798 16.0965 14.4534 18.5749 14.6116C21.0533 14.7697 23.4404 15.6063 25.4753 17.0299C27.5102 18.4536 29.1144 20.4093 30.1125 22.6834C30.6875 23.9959 31.9 25 33.3333 25C35.5434 25 37.663 25.878 39.2258 27.4408C40.7886 29.0036 41.6666 31.1232 41.6666 33.3334C41.6666 35.5435 40.7886 37.6631 39.2258 39.2259C37.663 40.7887 35.5434 41.6667 33.3333 41.6667H18.7708C18.7681 41.6667 18.7653 41.6662 18.7628 41.6651C18.7603 41.6641 18.758 41.6625 18.7561 41.6606C18.7541 41.6587 18.7526 41.6564 18.7515 41.6538C18.7505 41.6513 18.75 41.6486 18.75 41.6459ZM40.5416 24.4271C41.9291 23.8841 43.1456 22.9791 44.0646 21.8064C44.9836 20.6336 45.5715 19.236 45.767 17.759C45.9626 16.2819 45.7586 14.7795 45.1764 13.408C44.5943 12.0365 43.6551 10.8462 42.4568 9.96082C41.2584 9.07547 39.8447 8.52751 38.3627 8.37397C36.8807 8.22043 35.3846 8.46692 34.0302 9.08779C32.6758 9.70866 31.5126 10.6812 30.6616 11.9042C29.8107 13.1272 29.303 14.5559 29.1916 16.0417C30.7979 17.5669 32.0841 19.397 32.975 21.425C33.0645 21.625 33.1833 21.7625 33.277 21.8313L33.3458 21.8729C36.075 21.875 38.5791 22.8313 40.5458 24.425" fill="#E0E0E0"/>
</svg>
