<svg width="50" height="50" viewBox="0 0 50 50" fill="none" xmlns="http://www.w3.org/2000/svg">
<path fill-rule="evenodd" clip-rule="evenodd" d="M37.2562 4.16663C37.8421 4.16659 38.4214 4.2901 38.9563 4.5291C39.4912 4.7681 39.9697 5.11722 40.3605 5.55367C40.7514 5.99012 41.0458 6.50409 41.2245 7.06202C41.4033 7.61995 41.4623 8.20931 41.3979 8.79163L37.6937 42.125C37.5809 43.1445 37.096 44.0866 36.3318 44.7708C35.5676 45.4551 34.5778 45.8334 33.5521 45.8333H16.4479C15.4221 45.8334 14.4324 45.4551 13.6682 44.7708C12.904 44.0866 12.4191 43.1445 12.3062 42.125L8.60414 8.79163C8.53972 8.20949 8.59874 7.62031 8.77737 7.06252C8.956 6.50473 9.25022 5.99086 9.64083 5.55445C10.0314 5.11803 10.5097 4.76887 11.0443 4.52974C11.579 4.29061 12.158 4.16688 12.7437 4.16663H37.2562ZM27.0833 31.25C26.5308 31.25 26.0009 31.4695 25.6102 31.8602C25.2195 32.2509 25 32.7808 25 33.3333C25 33.8858 25.2195 34.4157 25.6102 34.8064C26.0009 35.1971 26.5308 35.4166 27.0833 35.4166C27.6358 35.4166 28.1658 35.1971 28.5564 34.8064C28.9472 34.4157 29.1666 33.8858 29.1666 33.3333C29.1666 32.7808 28.9472 32.2509 28.5564 31.8602C28.1658 31.4695 27.6358 31.25 27.0833 31.25ZM20.8333 25C20.2808 25 19.7509 25.2195 19.3602 25.6102C18.9695 26.0009 18.75 26.5308 18.75 27.0833C18.75 27.6358 18.9695 28.1657 19.3602 28.5564C19.7509 28.9471 20.2808 29.1666 20.8333 29.1666C21.3858 29.1666 21.9157 28.9471 22.3064 28.5564C22.6971 28.1657 22.9166 27.6358 22.9166 27.0833C22.9166 26.5308 22.6971 26.0009 22.3064 25.6102C21.9157 25.2195 21.3858 25 20.8333 25ZM37.2562 8.33329H12.7437L13.6291 16.2979L14.0187 16.2291C14.5604 16.1375 15.1875 16.0625 15.8937 16.0208C18.2437 15.8812 21.4416 16.1395 25.1229 17.5895L25.8208 17.877C28.9291 19.2104 31.5812 19.4854 33.4896 19.4208L36.0396 19.2791L37.2562 8.33329Z" fill="#E0E0E0"/>
</svg>
