<svg width="42" height="46" viewBox="0 0 42 46" fill="none" xmlns="http://www.w3.org/2000/svg">
<path d="M21 35.5834C21.5525 35.5834 22.0824 35.8028 22.4731 36.1936C22.8638 36.5843 23.0833 37.1142 23.0833 37.6667V39.75C23.0833 40.3026 22.8638 40.8325 22.4731 41.2232C22.0824 41.6139 21.5525 41.8334 21 41.8334C20.4474 41.8334 19.9175 41.6139 19.5268 41.2232C19.1361 40.8325 18.9166 40.3026 18.9166 39.75V37.6667C18.9166 37.1142 19.1361 36.5843 19.5268 36.1936C19.9175 35.8028 20.4474 35.5834 21 35.5834ZM34.2583 31.3125L35.7312 32.7854C36.1107 33.1784 36.3207 33.7046 36.316 34.2509C36.3112 34.7971 36.0921 35.3196 35.7058 35.7059C35.3196 36.0922 34.7971 36.3113 34.2508 36.316C33.7046 36.3208 33.1783 36.1108 32.7854 35.7313L31.3125 34.2584C30.933 33.8654 30.723 33.3392 30.7277 32.7929C30.7325 32.2467 30.9516 31.7242 31.3378 31.3379C31.7241 30.9516 32.2466 30.7325 32.7929 30.7278C33.3391 30.723 33.8654 30.933 34.2583 31.3125ZM7.74164 31.3125C8.11655 30.9389 8.61963 30.722 9.14869 30.7058C9.67775 30.6896 10.1931 30.8755 10.5901 31.2255C10.9871 31.5756 11.236 32.0637 11.2862 32.5906C11.3364 33.1175 11.1842 33.6438 10.8604 34.0625L10.6875 34.2584L9.21455 35.7313C8.83964 36.1049 8.33657 36.3218 7.80751 36.338C7.27844 36.3542 6.76307 36.1683 6.36606 35.8183C5.96905 35.4682 5.72017 34.9801 5.66997 34.4532C5.61978 33.9263 5.77203 33.4 6.0958 32.9813L6.26872 32.7854L7.74164 31.3125ZM21 8.50002C24.3152 8.50002 27.4946 9.81698 29.8388 12.1612C32.183 14.5054 33.5 17.6848 33.5 21C33.5 24.3152 32.183 27.4947 29.8388 29.8389C27.4946 32.1831 24.3152 33.5 21 33.5C17.6848 33.5 14.5053 32.1831 12.1611 29.8389C9.81693 27.4947 8.49997 24.3152 8.49997 21C8.49997 17.6848 9.81693 14.5054 12.1611 12.1612C14.5053 9.81698 17.6848 8.50002 21 8.50002ZM4.3333 18.9167C4.8643 18.9173 5.37504 19.1206 5.76116 19.4851C6.14727 19.8496 6.37963 20.3478 6.41075 20.8779C6.44186 21.408 6.2694 21.93 5.92859 22.3372C5.58777 22.7444 5.10434 23.0061 4.57705 23.0688L4.3333 23.0834H2.24997C1.71897 23.0828 1.20824 22.8794 0.82212 22.5149C0.436003 22.1504 0.203648 21.6522 0.172529 21.1221C0.14141 20.592 0.313876 20.0701 0.654689 19.6629C0.995502 19.2557 1.47894 18.994 2.00622 18.9313L2.24997 18.9167H4.3333ZM39.75 18.9167C40.3025 18.9167 40.8324 19.1362 41.2231 19.5269C41.6138 19.9176 41.8333 20.4475 41.8333 21C41.8333 21.5526 41.6138 22.0825 41.2231 22.4732C40.8324 22.8639 40.3025 23.0834 39.75 23.0834H37.6666C37.1141 23.0834 36.5842 22.8639 36.1935 22.4732C35.8028 22.0825 35.5833 21.5526 35.5833 21C35.5833 20.4475 35.8028 19.9176 36.1935 19.5269C36.5842 19.1362 37.1141 18.9167 37.6666 18.9167H39.75ZM6.26872 6.26877C6.62746 5.91007 7.10475 5.69459 7.61105 5.66275C8.11736 5.63092 8.61788 5.78491 9.01872 6.09585L9.21455 6.26877L10.6875 7.74169C11.0611 8.1166 11.278 8.61968 11.2942 9.14874C11.3104 9.6778 11.1245 10.1932 10.7745 10.5902C10.4244 10.9872 9.93632 11.2361 9.4094 11.2863C8.88248 11.3365 8.3562 11.1842 7.93747 10.8604L7.74164 10.6875L6.26872 9.2146C5.87816 8.82392 5.65875 8.29411 5.65875 7.74169C5.65875 7.18926 5.87816 6.65945 6.26872 6.26877ZM35.7312 6.26877C36.1218 6.65945 36.3412 7.18926 36.3412 7.74169C36.3412 8.29411 36.1218 8.82392 35.7312 9.2146L34.2583 10.6875C34.0661 10.8865 33.8362 11.0452 33.5821 11.1544C33.3279 11.2636 33.0545 11.3211 32.7779 11.3235C32.5013 11.3259 32.2269 11.2732 31.9709 11.1684C31.7149 11.0636 31.4823 10.909 31.2866 10.7133C31.091 10.5177 30.9363 10.2851 30.8316 10.0291C30.7268 9.77306 30.6741 9.49872 30.6765 9.2221C30.6789 8.94548 30.7364 8.6721 30.8456 8.41793C30.9548 8.16375 31.1135 7.93387 31.3125 7.74169L32.7854 6.26877C33.1761 5.87821 33.7059 5.6588 34.2583 5.6588C34.8107 5.6588 35.3405 5.87821 35.7312 6.26877ZM21 0.166687C21.5525 0.166687 22.0824 0.38618 22.4731 0.776881C22.8638 1.16758 23.0833 1.69749 23.0833 2.25002V4.33335C23.0833 4.88589 22.8638 5.41579 22.4731 5.80649C22.0824 6.19719 21.5525 6.41669 21 6.41669C20.4474 6.41669 19.9175 6.19719 19.5268 5.80649C19.1361 5.41579 18.9166 4.88589 18.9166 4.33335V2.25002C18.9166 1.69749 19.1361 1.16758 19.5268 0.776881C19.9175 0.38618 20.4474 0.166687 21 0.166687Z" fill="#E0E0E0"/>
</svg>
