<svg width="50" height="50" viewBox="0 0 50 50" fill="none" xmlns="http://www.w3.org/2000/svg">
<path d="M36.6812 21.864L26.3234 5.37029C26.1732 5.15937 25.9746 4.98742 25.7444 4.86878C25.5142 4.75013 25.259 4.68823 25 4.68823C24.741 4.68823 24.4858 4.75013 24.2556 4.86878C24.0254 4.98742 23.8268 5.15937 23.6766 5.37029L13.2719 21.9437C11.8276 24.2754 11.0225 26.9461 10.9375 29.6875C10.9375 33.4171 12.4191 36.9939 15.0563 39.6312C17.6935 42.2684 21.2704 43.75 25 43.75C28.7296 43.75 32.3065 42.2684 34.9437 39.6312C37.5809 36.9939 39.0625 33.4171 39.0625 29.6875C38.9729 26.9152 38.1513 24.2161 36.6812 21.864ZM25 40.625C22.1005 40.6208 19.3209 39.4672 17.2706 37.4169C15.2203 35.3666 14.0666 32.587 14.0625 29.6875C14.1472 27.5027 14.8034 25.3784 15.9656 23.5265L17.4266 21.1984L33.1672 36.939C32.1447 38.0971 30.8878 39.0246 29.4798 39.6603C28.0718 40.2961 26.5448 40.6238 25 40.625Z" fill="#E0E0E0"/>
</svg>
