<svg width="50" height="50" viewBox="0 0 50 50" fill="none" xmlns="http://www.w3.org/2000/svg">
<path d="M25 25H28.125V28.125H25V25ZM28.125 28.125H31.25V31.25H28.125V28.125ZM31.25 31.25H34.375V34.375H31.25V31.25ZM31.25 25H34.375V28.125H31.25V25ZM25 31.25H28.125V34.375H25V31.25ZM31.25 18.75C29.6397 18.7921 28.0783 18.1949 26.9071 17.089C25.7359 15.9831 25.0503 14.4585 25 12.8484C25.029 11.6987 25.3827 10.5806 26.0203 9.62344L29.9531 3.77188C30.1042 3.57069 30.3001 3.40741 30.5251 3.29496C30.7502 3.1825 30.9984 3.12396 31.25 3.12396C31.5016 3.12396 31.7498 3.1825 31.9749 3.29496C32.1999 3.40741 32.3958 3.57069 32.5469 3.77188L36.4297 9.54688C37.0933 10.5231 37.4646 11.6685 37.5 12.8484C37.4497 14.4585 36.7641 15.9831 35.5929 17.089C34.4217 18.1949 32.8603 18.7921 31.25 18.75ZM31.25 7.44219L28.6625 11.2906C28.3399 11.7488 28.1536 12.2889 28.125 12.8484C28.1745 13.6298 28.5307 14.36 29.116 14.88C29.7012 15.4 30.4682 15.6678 31.25 15.625C32.0318 15.6678 32.7988 15.4 33.384 14.88C33.9693 14.36 34.3255 13.6298 34.375 12.8484C34.3383 12.2587 34.1351 11.6915 33.7891 11.2125L31.25 7.44219Z" fill="#E0E0E0"/>
<path d="M43.75 6.25C42.9212 6.25 42.1263 6.57924 41.5403 7.16529C40.9542 7.75134 40.625 8.5462 40.625 9.375V40.625H9.375V15.625H12.5V28.125L14.0625 31.25L15.625 28.125V15.625H18.75V21.875L20.3125 25L21.875 21.875V12.5H9.375V9.375C9.375 8.5462 9.04576 7.75134 8.45971 7.16529C7.87366 6.57924 7.0788 6.25 6.25 6.25H3.125V9.375H6.25V40.625C6.25 41.4538 6.57924 42.2487 7.16529 42.8347C7.75134 43.4208 8.5462 43.75 9.375 43.75H40.625C41.4538 43.75 42.2487 43.4208 42.8347 42.8347C43.4208 42.2487 43.75 41.4538 43.75 40.625V9.375H46.875V6.25H43.75Z" fill="#E0E0E0"/>
</svg>
