<svg width="32" height="32" viewBox="0 0 32 32" fill="none" xmlns="http://www.w3.org/2000/svg">
<path d="M21.5 25.6667C21.801 25.6668 22.0903 25.7833 22.3075 25.9917C22.5246 26.2002 22.6528 26.4845 22.6652 26.7853C22.6775 27.086 22.5732 27.38 22.374 27.6056C22.1747 27.8312 21.896 27.9711 21.596 27.996L21.5007 28H10.5007C10.1997 27.9999 9.91035 27.8834 9.69321 27.6749C9.47607 27.4665 9.34791 27.1821 9.33551 26.8814C9.32312 26.5806 9.42745 26.2867 9.6267 26.0611C9.82594 25.8355 10.1047 25.6956 10.4047 25.6707L10.5007 25.6667H21.5ZM25.5 21.67C25.801 21.6701 26.0903 21.7866 26.3075 21.9951C26.5246 22.2035 26.6528 22.4879 26.6652 22.7886C26.6775 23.0894 26.5732 23.3833 26.374 23.6089C26.1747 23.8345 25.896 23.9744 25.596 23.9993L25.5007 24.0033H6.5C6.19905 24.003 5.90985 23.8864 5.69284 23.6779C5.47584 23.4694 5.3478 23.1851 5.3355 22.8844C5.32319 22.5837 5.42756 22.2898 5.6268 22.0643C5.82605 21.8387 6.10474 21.6989 6.40467 21.674L6.5 21.67H25.5ZM16 4.00667C20.2247 4.00667 22.6213 6.80267 22.97 10.18H23.0767C25.7953 10.18 27.9993 12.378 27.9993 15.09C27.9993 17.802 25.7947 20 23.076 20H8.92267C6.204 20 4 17.802 4 15.09C4 12.378 6.204 10.18 8.92267 10.18H9.02933C9.38 6.78067 11.7747 4.00667 16 4.00667Z" fill="#00AEFF"/>
</svg>
