<svg width="50" height="50" viewBox="0 0 50 50" fill="none" xmlns="http://www.w3.org/2000/svg">
<g clip-path="url(#clip0_40_832)">
<path d="M29.8077 0C25.4038 0 21.7538 2.48654 19.5308 5.95C19.1154 5.89231 18.7212 5.76923 18.2692 5.76923C13.4577 5.76923 9.61538 9.10577 8.35385 13.5212C3.74231 13.6923 0 17.4635 0 22.1154C0 26.8712 3.89808 30.7692 8.65385 30.7692H39.4231C45.2423 30.7692 50 26.0115 50 20.1923C50 15.2404 46.4962 11.2269 41.8865 10.0962C40.7365 4.38269 35.8462 0 29.8077 0ZM29.8077 3.84615C31.9768 3.84017 34.0679 4.65442 35.6618 6.12563C37.2557 7.59684 38.2345 9.61622 38.4019 11.7788L38.5808 13.4019L40.1442 13.5212C41.7947 13.6904 43.3234 14.4667 44.4338 15.6993C45.5443 16.932 46.1573 18.5332 46.1538 20.1923C46.1538 23.9308 43.1615 26.9231 39.4231 26.9231H8.65385C8.02142 26.9269 7.39453 26.8052 6.8095 26.5649C6.22448 26.3247 5.69296 25.9707 5.24576 25.5235C4.79856 25.0763 4.44457 24.5448 4.20432 23.9597C3.96407 23.3747 3.84232 22.7478 3.84615 22.1154C3.84202 21.422 3.98884 20.736 4.27641 20.105C4.56398 19.4741 4.98541 18.9132 5.51146 18.4615C6.0375 18.0097 6.65556 17.6779 7.32273 17.4889C7.98989 17.3 8.69019 17.2585 9.375 17.3673L11.4192 17.7288L11.5981 15.6846C11.7534 14.0235 12.5236 12.4802 13.7577 11.3575C14.9918 10.2347 16.6008 9.61341 18.2692 9.61539C18.7692 9.61539 19.2885 9.66731 19.8327 9.79615L21.3327 10.1558L21.9962 8.775C22.6979 7.29811 23.8046 6.05083 25.1875 5.17828C26.5704 4.30573 28.1726 3.84377 29.8077 3.84615ZM40.325 32.3923C38.4981 33.3385 34.3173 34.8654 33.2327 36.5981C32.9709 37.0082 32.7927 37.466 32.7085 37.9452C32.6242 38.4244 32.6354 38.9155 32.7416 39.3904C32.8477 39.8652 33.0467 40.3144 33.327 40.7121C33.6073 41.1097 33.9635 41.4481 34.375 41.7077C36.1038 42.7942 38.2615 42.1442 39.4827 40.5058C40.5692 39.0481 40.3231 36.3154 40.325 32.3923ZM13.4019 34.3154C11.575 35.2615 7.39423 36.7885 6.30962 38.5212C6.04782 38.9313 5.86965 39.3891 5.78537 39.8683C5.70109 40.3475 5.71235 40.8386 5.8185 41.3134C5.92466 41.7883 6.12361 42.2374 6.40393 42.6351C6.68425 43.0328 7.0404 43.3712 7.45192 43.6308C9.18077 44.7173 11.3385 44.0673 12.5596 42.4288C13.6462 40.9712 13.4 38.2385 13.4019 34.3154ZM26.8635 40.0846C25.0365 41.0308 20.8558 42.5577 19.7712 44.2904C19.5094 44.7005 19.3312 45.1583 19.2469 45.6375C19.1626 46.1167 19.1739 46.6078 19.28 47.0827C19.3862 47.5575 19.5851 48.0067 19.8655 48.4044C20.1458 48.802 20.5019 49.1404 20.9135 49.4C22.6423 50.4865 24.8 49.8365 26.0212 48.1981C27.1077 46.7404 26.8615 44.0077 26.8635 40.0846Z" fill="#E0E0E0"/>
</g>
<defs>
<clipPath id="clip0_40_832">
<rect width="50" height="50" fill="white"/>
</clipPath>
</defs>
</svg>
