<svg width="50" height="50" viewBox="0 0 50 50" fill="none" xmlns="http://www.w3.org/2000/svg">
<path d="M32.2916 22.9167C31.4236 22.9167 30.6861 22.6132 30.0791 22.0062C29.4722 21.3993 29.168 20.6611 29.1666 19.7917C29.1666 19.3403 29.3319 18.8194 29.6625 18.2292C29.993 17.6389 30.3486 17.075 30.7291 16.5375C31.1097 16 31.466 15.5396 31.7979 15.1562L32.2916 14.5833L32.7875 15.1562C33.1166 15.5382 33.4722 15.9986 33.8541 16.5375C34.2361 17.0764 34.5923 17.6403 34.9229 18.2292C35.2535 18.8181 35.418 19.3389 35.4166 19.7917C35.4166 20.6597 35.1132 21.3979 34.5062 22.0062C33.8993 22.6146 33.1611 22.9181 32.2916 22.9167ZM40.625 16.6667C39.7569 16.6667 39.0194 16.3632 38.4125 15.7563C37.8055 15.1493 37.5014 14.4111 37.5 13.5417C37.5 13.0903 37.6653 12.5694 37.9958 11.9792C38.3264 11.3889 38.6819 10.825 39.0625 10.2875C39.443 9.75 39.7993 9.28958 40.1312 8.90625L40.625 8.33333L41.1208 8.90625C41.45 9.28819 41.8055 9.74861 42.1875 10.2875C42.5694 10.8264 42.9257 11.3903 43.2562 11.9792C43.5868 12.5681 43.7514 13.0889 43.75 13.5417C43.75 14.4097 43.4465 15.1479 42.8396 15.7563C42.2326 16.3646 41.4944 16.6681 40.625 16.6667ZM40.625 29.1667C39.7569 29.1667 39.0194 28.8632 38.4125 28.2562C37.8055 27.6493 37.5014 26.9111 37.5 26.0417C37.5 25.5903 37.6653 25.0694 37.9958 24.4792C38.3264 23.8889 38.6819 23.325 39.0625 22.7875C39.443 22.25 39.7993 21.7896 40.1312 21.4062L40.625 20.8333L41.1208 21.4062C41.45 21.7882 41.8055 22.2486 42.1875 22.7875C42.5694 23.3264 42.9257 23.8903 43.2562 24.4792C43.5868 25.0681 43.7514 25.5889 43.75 26.0417C43.75 26.9097 43.4465 27.6479 42.8396 28.2562C42.2326 28.8646 41.4944 29.1681 40.625 29.1667ZM18.75 43.75C15.868 43.75 13.4118 42.734 11.3812 40.7021C9.35067 38.6701 8.3347 36.2139 8.33331 33.3333C8.33331 31.6667 8.6979 30.1125 9.42706 28.6708C10.1562 27.2292 11.1805 26.0056 12.5 25V12.5C12.5 10.7639 13.1076 9.28819 14.3229 8.07292C15.5382 6.85764 17.0139 6.25 18.75 6.25C20.4861 6.25 21.9618 6.85764 23.1771 8.07292C24.3923 9.28819 25 10.7639 25 12.5V25C26.3194 26.0069 27.3437 27.2312 28.0729 28.6729C28.8021 30.1146 29.1666 31.6681 29.1666 33.3333C29.1666 36.2153 28.1507 38.6722 26.1187 40.7042C24.0868 42.7361 21.6305 43.7514 18.75 43.75ZM12.5 33.3333H25C25 32.3264 24.7833 31.3889 24.35 30.5208C23.9166 29.6528 23.3 28.9236 22.5 28.3333L20.8333 27.0833V12.5C20.8333 11.9097 20.6333 11.4153 20.2333 11.0167C19.8333 10.6181 19.3389 10.4181 18.75 10.4167C18.1611 10.4153 17.6666 10.6153 17.2666 11.0167C16.8666 11.4181 16.6666 11.9125 16.6666 12.5V27.0833L15 28.3333C14.2014 28.9236 13.5847 29.6528 13.15 30.5208C12.7153 31.3889 12.4986 32.3264 12.5 33.3333Z" fill="#E0E0E0"/>
</svg>
